<svg xmlns="http://www.w3.org/2000/svg" xmlns:xlink="http://www.w3.org/1999/xlink" width="500" zoomAndPan="magnify" viewBox="0 0 375 374.999991" height="500" preserveAspectRatio="xMidYMid meet" version="1.0"><defs><clipPath id="b577d27d23"><path d="M 4.019531 4.019531 L 370.769531 4.019531 L 370.769531 370.769531 L 4.019531 370.769531 Z M 4.019531 4.019531 " clip-rule="nonzero"/></clipPath><clipPath id="f0dafd21c6"><path d="M 187.496094 4.019531 C 86.164062 4.019531 4.019531 86.164062 4.019531 187.496094 C 4.019531 288.824219 86.164062 370.96875 187.496094 370.96875 C 288.824219 370.96875 370.96875 288.824219 370.96875 187.496094 C 370.96875 86.164062 288.824219 4.019531 187.496094 4.019531 Z M 187.496094 4.019531 " clip-rule="nonzero"/></clipPath><clipPath id="03533649e3"><path d="M 101 57.535156 L 274 57.535156 L 274 317.785156 L 101 317.785156 Z M 101 57.535156 " clip-rule="nonzero"/></clipPath></defs><g clip-path="url(#b577d27d23)"><g clip-path="url(#f0dafd21c6)"><path stroke-linecap="butt" transform="matrix(0.75, 0, 0, 0.75, 4.019881, 4.019877)" fill="none" stroke-linejoin="miter" d="M 244.634966 -0.000460456 C 109.525582 -0.000460456 -0.000466456 109.525588 -0.000466456 244.634972 C -0.000466456 379.739148 109.525582 489.265197 244.634966 489.265197 C 379.739142 489.265197 489.265191 379.739148 489.265191 244.634972 C 489.265191 109.525588 379.739142 -0.000460456 244.634966 -0.000460456 Z M 244.634966 -0.000460456 " stroke="#000000" stroke-width="70" stroke-opacity="1" stroke-miterlimit="4"/></g></g><g clip-path="url(#03533649e3)"><path fill="#000000" d="M 151.617188 209.109375 L 151.617188 208.058594 C 151.617188 189.023438 161.890625 176.273438 180.875 165.441406 C 204.574219 151.46875 210.667969 143.957031 210.667969 128.933594 C 210.667969 114.789062 199.339844 104.832031 183.671875 104.832031 C 169.738281 104.832031 160.324219 111.292969 154.933594 124.042969 C 149.878906 135.398438 139.945312 141.164062 127.746094 141.164062 C 111.371094 141.164062 100.921875 131.035156 101.09375 115.3125 C 101.09375 107.800781 102.839844 100.984375 106.5 94.351562 C 118.164062 72.34375 147.265625 57.316406 186.800781 57.316406 C 239.585938 57.316406 274.25 84.917969 274.25 127.359375 C 274.25 153.039062 262.242188 170.855469 236.628906 185.699219 C 213.921875 198.828125 208.71875 205.160156 205.265625 216.574219 C 205.085938 217.152344 204.914062 217.746094 204.75 218.355469 C 200.742188 230.585938 192.558594 237.046875 179.148438 237.046875 C 162.410156 237.058594 151.617188 225.707031 151.617188 209.109375 Z M 147.085938 285.96875 C 147.085938 268.503906 161.71875 254.703125 180.007812 254.703125 C 198.121094 254.703125 212.925781 268.503906 212.925781 285.96875 C 212.925781 303.609375 198.121094 317.410156 180.007812 317.410156 C 161.71875 317.410156 147.085938 303.609375 147.085938 285.96875 Z M 147.085938 285.96875 " fill-opacity="1" fill-rule="nonzero"/></g></svg>