<svg xmlns="http://www.w3.org/2000/svg" xmlns:xlink="http://www.w3.org/1999/xlink" width="500" zoomAndPan="magnify" viewBox="0 0 375 374.999991" height="500" preserveAspectRatio="xMidYMid meet" version="1.0"><defs><clipPath id="80007272be"><path d="M 0 0.00390625 L 374.808594 0.00390625 L 374.808594 375 L 0 375 Z M 0 0.00390625 " clip-rule="nonzero"/></clipPath><clipPath id="e252d50948"><path d="M 29.058594 0.00390625 L 345.746094 0.00390625 C 353.503906 0.00390625 360.941406 3.085938 366.429688 8.570312 C 371.914062 14.054688 374.996094 21.496094 374.996094 29.253906 L 374.996094 345.746094 C 374.996094 353.503906 371.914062 360.945312 366.429688 366.429688 C 360.941406 371.914062 353.503906 374.996094 345.746094 374.996094 L 29.058594 374.996094 C 21.300781 374.996094 13.859375 371.914062 8.375 366.429688 C 2.890625 360.945312 -0.191406 353.503906 -0.191406 345.746094 L -0.191406 29.253906 C -0.191406 21.496094 2.890625 14.054688 8.375 8.570312 C 13.859375 3.085938 21.300781 0.00390625 29.058594 0.00390625 Z M 29.058594 0.00390625 " clip-rule="nonzero"/></clipPath><clipPath id="d84630e00c"><path d="M 69.039062 61.484375 L 140.753906 61.484375 L 140.753906 133.199219 L 69.039062 133.199219 Z M 69.039062 61.484375 " clip-rule="nonzero"/></clipPath><clipPath id="21110d2398"><path d="M 104.894531 61.484375 C 85.09375 61.484375 69.039062 77.539062 69.039062 97.339844 C 69.039062 117.144531 85.09375 133.199219 104.894531 133.199219 C 124.699219 133.199219 140.753906 117.144531 140.753906 97.339844 C 140.753906 77.539062 124.699219 61.484375 104.894531 61.484375 Z M 104.894531 61.484375 " clip-rule="nonzero"/></clipPath><clipPath id="768e5ab895"><path d="M 20.019531 186 L 368.019531 186 L 368.019531 357.179688 L 20.019531 357.179688 Z M 20.019531 186 " clip-rule="nonzero"/></clipPath><clipPath id="bba57fabbb"><path d="M 10.144531 242 L 364.894531 242 L 364.894531 348.007812 L 10.144531 348.007812 Z M 10.144531 242 " clip-rule="nonzero"/></clipPath></defs><g clip-path="url(#80007272be)"><g clip-path="url(#e252d50948)"><path stroke-linecap="butt" transform="matrix(0.75, 0, 0, 0.75, -0.192298, 0.00240596)" fill="none" stroke-linejoin="miter" d="M 39.001192 0.00200038 L 461.25122 0.00200038 C 471.59497 0.00200038 481.511638 4.111376 488.829346 11.423876 C 496.141847 18.736377 500.251222 28.658252 500.251222 39.002003 L 500.251222 460.991614 C 500.251222 471.335365 496.141847 481.25724 488.829346 488.569741 C 481.511638 495.882241 471.59497 499.991617 461.25122 499.991617 L 39.001192 499.991617 C 28.657441 499.991617 18.735566 495.882241 11.423065 488.569741 C 4.110565 481.25724 0.00118936 471.335365 0.00118936 460.991614 L 0.00118936 39.002003 C 0.00118936 28.658252 4.110565 18.736377 11.423065 11.423876 C 18.735566 4.111376 28.657441 0.00200038 39.001192 0.00200038 Z M 39.001192 0.00200038 " stroke="#000000" stroke-width="72" stroke-opacity="1" stroke-miterlimit="4"/></g></g><g clip-path="url(#d84630e00c)"><g clip-path="url(#21110d2398)"><path fill="#000000" d="M 69.039062 61.484375 L 140.753906 61.484375 L 140.753906 133.199219 L 69.039062 133.199219 Z M 69.039062 61.484375 " fill-opacity="1" fill-rule="nonzero"/></g></g><g clip-path="url(#768e5ab895)"><path fill="#000000" d="M -87.746094 375.917969 C -41.789062 351.589844 16.457031 347.347656 64.273438 317.316406 C 130.25 275.886719 174.21875 206.519531 254.847656 189.875 C 338.113281 172.691406 394.058594 218.769531 460.839844 258.882812 C 497.824219 281.097656 543 280.59375 578.527344 304.488281 C 618.953125 331.6875 627.5 384.800781 640.492188 428.085938 " fill-opacity="1" fill-rule="evenodd"/></g><g clip-path="url(#bba57fabbb)"><path fill="#000000" d="M 389.992188 356.605469 C 359.835938 356.652344 341.75 320.261719 316.835938 308.414062 C 286.730469 294.089844 258.53125 319.609375 228.277344 312.308594 C 176.148438 299.714844 147.550781 232.5 87.351562 243.832031 C 61.828125 248.632812 50.546875 269.066406 31.265625 283.316406 C 15.015625 295.328125 -5.070312 296.464844 -22.28125 306.132812 C -46.445312 319.714844 -61.453125 349.296875 -71.617188 373.824219 C -79.589844 393.074219 -96.996094 437.5625 -75.910156 454.53125 C -62.78125 465.109375 -40.175781 462.054688 -24.691406 462.144531 C 21.058594 462.390625 66.816406 460.917969 112.542969 459.582031 " fill-opacity="1" fill-rule="evenodd"/></g></svg>