<svg xmlns="http://www.w3.org/2000/svg" xmlns:xlink="http://www.w3.org/1999/xlink" width="500" zoomAndPan="magnify" viewBox="0 0 375 374.999991" height="500" preserveAspectRatio="xMidYMid meet" version="1.0"><defs><clipPath id="87677885af"><path d="M 6.472656 6.472656 L 368.523438 6.472656 L 368.523438 368.523438 L 6.472656 368.523438 Z M 6.472656 6.472656 " clip-rule="nonzero"/></clipPath><clipPath id="f319e885c0"><path d="M 187.496094 6.472656 C 87.519531 6.472656 6.472656 87.519531 6.472656 187.496094 C 6.472656 287.476562 87.519531 368.523438 187.496094 368.523438 C 287.476562 368.523438 368.523438 287.476562 368.523438 187.496094 C 368.523438 87.519531 287.476562 6.472656 187.496094 6.472656 Z M 187.496094 6.472656 " clip-rule="nonzero"/></clipPath><clipPath id="07cc2d457d"><path d="M 61 236 L 163 236 L 163 318.882812 L 61 318.882812 Z M 61 236 " clip-rule="nonzero"/></clipPath></defs><g clip-path="url(#87677885af)"><g clip-path="url(#f319e885c0)"><path stroke-linecap="butt" transform="matrix(0.75, 0, 0, 0.75, 6.472159, 6.472148)" fill="none" stroke-linejoin="miter" d="M 241.365262 0.0006777 C 108.06317 0.0006777 0.00066306 108.063185 0.00066306 241.365277 C 0.00066306 374.672577 108.06317 482.735084 241.365262 482.735084 C 374.672563 482.735084 482.73507 374.672577 482.73507 241.365277 C 482.73507 108.063185 374.672563 0.0006777 241.365262 0.0006777 Z M 241.365262 0.0006777 " stroke="#000000" stroke-width="82" stroke-opacity="1" stroke-miterlimit="4"/></g></g><path fill="#000000" d="M 91.613281 99.234375 C 92.308594 87.964844 95.230469 83.070312 103.625 79.132812 C 112.652344 74.898438 126.894531 76.867188 143.644531 84.671875 C 150.859375 88.03125 151.59375 88.101562 164.242188 86.609375 C 181.050781 84.628906 202.695312 84.632812 218.210938 86.628906 C 229.945312 88.136719 230.714844 88.0625 237.949219 84.691406 C 261.726562 73.609375 280.507812 74.339844 287.308594 86.59375 C 290.703125 92.710938 291.328125 108.589844 288.699219 121.6875 C 287.246094 128.945312 287.398438 129.851562 290.910156 134.617188 C 315.640625 168.136719 297.824219 222.46875 255.449219 242.746094 C 252.207031 244.296875 249.472656 245.257812 247.25 246.039062 C 240.410156 248.441406 238.335938 249.171875 240.847656 260.226562 C 242.058594 265.539062 243.515625 278.761719 244.089844 289.605469 C 245.125 309.203125 245.113281 309.34375 241.375 313.339844 C 236.285156 318.78125 228.953125 318.875 223.988281 313.558594 C 220.75 310.09375 220.433594 308.457031 220.433594 295.089844 C 220.433594 275.332031 218.082031 262.203125 212.519531 250.949219 C 205.90625 237.558594 210.808594 232.566406 225.933594 229.570312 C 246.957031 225.410156 263.382812 213.476562 272.53125 195.703125 C 281.234375 178.804688 282.546875 155.460938 266.8125 141.257812 C 262.335938 136.367188 262.027344 131.941406 265.21875 118.578125 C 266.410156 113.585938 267.414062 107.148438 267.445312 104.261719 C 267.488281 99.714844 267.039062 99.023438 264 99.023438 C 262.074219 99.023438 254.730469 101.597656 247.675781 104.742188 L 236.417969 109.761719 C 235.398438 110.21875 234.25 110.394531 233.121094 110.273438 C 204.492188 107.253906 177.292969 107.207031 148.527344 110.289062 C 147.394531 110.410156 146.238281 110.234375 145.21875 109.777344 L 133.964844 104.753906 C 126.914062 101.605469 119.566406 99.03125 117.640625 99.03125 C 113.199219 99.03125 113.132812 102.050781 117.183594 119.976562 C 119.65625 130.925781 121.320312 133.367188 114.167969 142.121094 C 103.445312 155.246094 100.769531 171.546875 106.519531 188.667969 C 113.761719 210.25 131.507812 224.824219 156.460938 229.6875 C 171.5 232.621094 175.429688 236.445312 169.6875 252.308594 C 165.167969 264.792969 162.308594 268.011719 155.738281 268.011719 C 146.894531 268.011719 141.359375 260.96875 144.40625 253.597656 C 145.746094 250.351562 145.347656 250.003906 137.070312 247.226562 C 111.789062 238.746094 92.457031 219.746094 83.617188 194.695312 C 76.785156 175.332031 79.792969 150.125 90.75 134.890625 C 94.484375 129.707031 94.542969 129.261719 92.800781 119.335938 C 91.816406 113.71875 91.28125 104.667969 91.613281 99.234375 Z M 91.613281 99.234375 " fill-opacity="1" fill-rule="nonzero"/><g clip-path="url(#07cc2d457d)"><path fill="#000000" d="M 82.789062 240.882812 C 79.144531 235.855469 71.761719 234.496094 66.300781 237.847656 C 60.835938 241.203125 59.359375 247.988281 63 253.015625 C 65.691406 256.722656 68.910156 259.773438 71.640625 262.285156 C 72.140625 262.75 72.632812 263.195312 73.113281 263.628906 C 75.398438 265.722656 77.417969 267.566406 79.449219 269.761719 C 83.941406 274.609375 88.417969 281.136719 90.964844 292.839844 C 92.097656 298.054688 96.171875 300.863281 98.429688 302.09375 C 100.878906 303.425781 103.550781 304.207031 105.757812 304.71875 C 110.261719 305.765625 115.726562 306.304688 120.910156 306.621094 C 126.609375 306.96875 132.777344 307.082031 138.296875 307.113281 C 138.300781 313.148438 143.621094 318.042969 150.1875 318.042969 C 156.75 318.042969 162.074219 313.148438 162.074219 307.109375 L 162.074219 296.175781 C 162.074219 290.136719 156.75 285.238281 150.1875 285.238281 C 149.066406 285.238281 147.851562 285.246094 146.566406 285.25 C 139.589844 285.269531 130.496094 285.292969 122.484375 284.804688 C 118.621094 284.570312 115.445312 284.238281 113.117188 283.832031 C 109.535156 270.886719 103.742188 262.265625 97.558594 255.59375 C 94.820312 252.644531 91.996094 250.0625 89.695312 247.964844 C 89.265625 247.574219 88.851562 247.195312 88.460938 246.835938 C 85.800781 244.375 84.066406 242.640625 82.789062 240.882812 Z M 82.789062 240.882812 " fill-opacity="1" fill-rule="nonzero"/></g></svg>