<svg xmlns="http://www.w3.org/2000/svg" xmlns:xlink="http://www.w3.org/1999/xlink" width="500" zoomAndPan="magnify" viewBox="0 0 375 374.999991" height="500" preserveAspectRatio="xMidYMid meet" version="1.0"><defs><clipPath id="827f017578"><path d="M 4.792969 4.792969 L 370.042969 4.792969 L 370.042969 370.042969 L 4.792969 370.042969 Z M 4.792969 4.792969 " clip-rule="nonzero"/></clipPath></defs><path fill="#000000" d="M 89.941406 137.257812 L 116.957031 137.257812 C 117.296875 137.257812 117.632812 137.292969 117.96875 137.359375 C 118.300781 137.425781 118.625 137.523438 118.941406 137.652344 C 119.253906 137.78125 119.550781 137.941406 119.835938 138.132812 C 120.117188 138.320312 120.378906 138.535156 120.621094 138.777344 C 120.859375 139.015625 121.074219 139.277344 121.265625 139.5625 C 121.453125 139.84375 121.613281 140.140625 121.742188 140.457031 C 121.875 140.769531 121.972656 141.09375 122.039062 141.429688 C 122.105469 141.761719 122.136719 142.097656 122.136719 142.4375 L 122.136719 291.035156 C 122.136719 291.375 122.105469 291.710938 122.039062 292.042969 C 121.972656 292.378906 121.875 292.703125 121.742188 293.015625 C 121.613281 293.332031 121.453125 293.628906 121.265625 293.910156 C 121.074219 294.195312 120.859375 294.457031 120.621094 294.695312 C 120.378906 294.9375 120.117188 295.152344 119.835938 295.339844 C 119.550781 295.53125 119.253906 295.691406 118.941406 295.820312 C 118.625 295.949219 118.300781 296.046875 117.96875 296.113281 C 117.632812 296.179688 117.296875 296.214844 116.957031 296.214844 L 89.941406 296.214844 C 89.601562 296.214844 89.265625 296.179688 88.929688 296.113281 C 88.597656 296.046875 88.273438 295.949219 87.957031 295.820312 C 87.644531 295.691406 87.347656 295.53125 87.0625 295.339844 C 86.78125 295.152344 86.519531 294.9375 86.277344 294.695312 C 86.039062 294.457031 85.824219 294.195312 85.632812 293.910156 C 85.445312 293.628906 85.285156 293.332031 85.15625 293.015625 C 85.023438 292.703125 84.925781 292.378906 84.859375 292.042969 C 84.792969 291.710938 84.761719 291.375 84.761719 291.035156 L 84.761719 142.4375 C 84.761719 142.097656 84.792969 141.761719 84.859375 141.429688 C 84.925781 141.09375 85.023438 140.769531 85.15625 140.457031 C 85.285156 140.140625 85.445312 139.84375 85.632812 139.5625 C 85.824219 139.277344 86.039062 139.015625 86.277344 138.777344 C 86.519531 138.535156 86.78125 138.320312 87.0625 138.132812 C 87.347656 137.941406 87.644531 137.78125 87.957031 137.652344 C 88.273438 137.523438 88.597656 137.425781 88.929688 137.359375 C 89.265625 137.292969 89.601562 137.257812 89.941406 137.257812 Z M 89.941406 137.257812 " fill-opacity="1" fill-rule="nonzero"/><path fill="#000000" d="M 125.210938 100.597656 C 125.167969 87.859375 116.03125 78.617188 103.449219 78.617188 C 90.871094 78.617188 81.382812 88.105469 81.382812 100.6875 C 81.382812 106.539062 83.519531 111.984375 87.394531 116.019531 C 91.378906 120.164062 96.863281 122.445312 102.835938 122.445312 C 109.457031 122.445312 115.363281 120.113281 119.476562 115.855469 C 123.328125 111.871094 125.359375 106.488281 125.210938 100.6875 C 125.210938 100.65625 125.210938 100.636719 125.210938 100.597656 Z M 125.210938 100.597656 " fill-opacity="1" fill-rule="nonzero"/><path fill="#000000" d="M 273.1875 147.710938 C 259.734375 135.679688 243.972656 133.878906 235.769531 133.878906 C 223.515625 133.878906 211.839844 137.15625 202 143.351562 C 197.699219 146.058594 193.8125 149.269531 190.34375 152.984375 L 189.664062 142.105469 C 189.644531 141.777344 189.59375 141.457031 189.511719 141.140625 C 189.429688 140.824219 189.320312 140.515625 189.179688 140.222656 C 189.042969 139.925781 188.875 139.644531 188.683594 139.382812 C 188.492188 139.117188 188.277344 138.871094 188.039062 138.648438 C 187.800781 138.425781 187.542969 138.226562 187.265625 138.050781 C 186.988281 137.875 186.699219 137.730469 186.394531 137.609375 C 186.089844 137.488281 185.777344 137.398438 185.457031 137.339844 C 185.136719 137.277344 184.8125 137.246094 184.484375 137.246094 L 160.550781 137.246094 C 160.195312 137.246094 159.84375 137.285156 159.492188 137.355469 C 159.144531 137.429688 158.804688 137.539062 158.480469 137.679688 C 158.152344 137.824219 157.84375 137.996094 157.554688 138.203125 C 157.261719 138.410156 156.996094 138.644531 156.753906 138.90625 C 156.511719 139.167969 156.296875 139.449219 156.113281 139.757812 C 155.929688 140.0625 155.78125 140.382812 155.660156 140.71875 C 155.542969 141.054688 155.460938 141.398438 155.414062 141.753906 C 155.371094 142.105469 155.359375 142.460938 155.386719 142.816406 C 156.234375 154.15625 156.597656 166.070312 156.597656 182.648438 L 156.597656 291.035156 C 156.597656 291.375 156.632812 291.710938 156.699219 292.042969 C 156.765625 292.378906 156.863281 292.703125 156.992188 293.015625 C 157.121094 293.332031 157.28125 293.628906 157.472656 293.910156 C 157.660156 294.195312 157.875 294.457031 158.117188 294.695312 C 158.355469 294.9375 158.617188 295.152344 158.902344 295.339844 C 159.183594 295.53125 159.480469 295.691406 159.796875 295.820312 C 160.109375 295.949219 160.433594 296.046875 160.769531 296.113281 C 161.101562 296.179688 161.4375 296.214844 161.777344 296.214844 L 188.796875 296.214844 C 189.136719 296.214844 189.472656 296.179688 189.808594 296.113281 C 190.140625 296.046875 190.464844 295.949219 190.78125 295.820312 C 191.09375 295.691406 191.394531 295.53125 191.675781 295.339844 C 191.957031 295.152344 192.21875 294.9375 192.460938 294.695312 C 192.703125 294.457031 192.917969 294.195312 193.105469 293.910156 C 193.292969 293.628906 193.453125 293.332031 193.582031 293.015625 C 193.714844 292.703125 193.8125 292.378906 193.878906 292.042969 C 193.945312 291.710938 193.976562 291.375 193.976562 291.035156 L 193.976562 201.691406 C 193.976562 197.492188 194.535156 193.550781 195.507812 190.875 C 195.539062 190.792969 195.566406 190.707031 195.59375 190.617188 C 199.246094 178.699219 210.332031 166.648438 226.867188 166.648438 C 237.101562 166.648438 244.449219 170.148438 249.328125 177.347656 C 253.730469 183.855469 256.0625 193.546875 256.0625 205.371094 L 256.0625 291.035156 C 256.0625 291.375 256.097656 291.710938 256.164062 292.042969 C 256.230469 292.378906 256.328125 292.703125 256.457031 293.015625 C 256.585938 293.332031 256.746094 293.628906 256.9375 293.910156 C 257.125 294.195312 257.339844 294.457031 257.582031 294.695312 C 257.820312 294.9375 258.082031 295.152344 258.367188 295.339844 C 258.648438 295.53125 258.945312 295.691406 259.261719 295.820312 C 259.574219 295.949219 259.898438 296.046875 260.234375 296.113281 C 260.566406 296.179688 260.902344 296.214844 261.242188 296.214844 L 288.261719 296.214844 C 288.601562 296.214844 288.9375 296.179688 289.273438 296.113281 C 289.605469 296.046875 289.929688 295.949219 290.246094 295.820312 C 290.558594 295.691406 290.855469 295.53125 291.140625 295.339844 C 291.421875 295.152344 291.683594 294.9375 291.925781 294.695312 C 292.164062 294.457031 292.378906 294.195312 292.570312 293.910156 C 292.757812 293.628906 292.917969 293.332031 293.046875 293.015625 C 293.179688 292.703125 293.277344 292.378906 293.34375 292.042969 C 293.410156 291.710938 293.441406 291.375 293.441406 291.035156 L 293.441406 202.304688 C 293.441406 189.664062 291.53125 178.460938 287.765625 169.007812 C 284.382812 160.503906 279.476562 153.335938 273.1875 147.710938 Z M 273.1875 147.710938 " fill-opacity="1" fill-rule="nonzero"/><g clip-path="url(#827f017578)"><path fill="#000000" d="M 322.492188 4.792969 L 52.339844 4.792969 C 26.121094 4.792969 4.792969 26.125 4.792969 52.339844 L 4.792969 322.492188 C 4.792969 348.710938 26.121094 370.042969 52.339844 370.042969 L 322.492188 370.042969 C 348.710938 370.042969 370.042969 348.710938 370.042969 322.492188 L 370.042969 52.339844 C 370.042969 26.125 348.710938 4.792969 322.492188 4.792969 Z M 336.652344 54.644531 L 336.652344 320.1875 C 336.652344 320.726562 336.625 321.265625 336.574219 321.800781 C 336.519531 322.339844 336.441406 322.871094 336.335938 323.398438 C 336.230469 323.929688 336.097656 324.449219 335.941406 324.964844 C 335.785156 325.480469 335.601562 325.988281 335.394531 326.488281 C 335.1875 326.984375 334.957031 327.472656 334.703125 327.945312 C 334.449219 328.421875 334.171875 328.882812 333.875 329.332031 C 333.574219 329.78125 333.253906 330.210938 332.910156 330.628906 C 332.570312 331.046875 332.207031 331.445312 331.824219 331.824219 C 331.445312 332.207031 331.046875 332.570312 330.628906 332.910156 C 330.210938 333.253906 329.78125 333.574219 329.332031 333.875 C 328.882812 334.171875 328.421875 334.449219 327.945312 334.703125 C 327.472656 334.957031 326.984375 335.1875 326.488281 335.394531 C 325.988281 335.601562 325.480469 335.785156 324.964844 335.941406 C 324.449219 336.097656 323.929688 336.230469 323.398438 336.335938 C 322.871094 336.441406 322.339844 336.519531 321.800781 336.574219 C 321.265625 336.625 320.726562 336.652344 320.1875 336.652344 L 54.644531 336.652344 C 54.105469 336.652344 53.566406 336.625 53.03125 336.574219 C 52.496094 336.519531 51.960938 336.441406 51.433594 336.335938 C 50.90625 336.230469 50.382812 336.097656 49.867188 335.941406 C 49.351562 335.785156 48.84375 335.601562 48.347656 335.394531 C 47.847656 335.1875 47.363281 334.957031 46.886719 334.703125 C 46.410156 334.449219 45.949219 334.171875 45.5 333.875 C 45.054688 333.574219 44.621094 333.253906 44.203125 332.910156 C 43.789062 332.570312 43.386719 332.207031 43.007812 331.824219 C 42.625 331.445312 42.265625 331.046875 41.921875 330.628906 C 41.582031 330.210938 41.257812 329.78125 40.960938 329.332031 C 40.660156 328.882812 40.382812 328.421875 40.128906 327.945312 C 39.875 327.472656 39.644531 326.984375 39.4375 326.488281 C 39.230469 325.988281 39.050781 325.480469 38.894531 324.964844 C 38.734375 324.449219 38.605469 323.929688 38.5 323.398438 C 38.394531 322.871094 38.3125 322.339844 38.261719 321.800781 C 38.207031 321.265625 38.179688 320.726562 38.179688 320.1875 L 38.179688 54.644531 C 38.179688 54.105469 38.207031 53.566406 38.261719 53.03125 C 38.3125 52.496094 38.394531 51.960938 38.5 51.433594 C 38.605469 50.90625 38.734375 50.382812 38.894531 49.867188 C 39.050781 49.351562 39.230469 48.84375 39.4375 48.347656 C 39.644531 47.847656 39.875 47.363281 40.128906 46.886719 C 40.382812 46.410156 40.660156 45.949219 40.960938 45.5 C 41.257812 45.054688 41.582031 44.621094 41.921875 44.203125 C 42.265625 43.789062 42.625 43.386719 43.007812 43.007812 C 43.386719 42.625 43.789062 42.265625 44.203125 41.921875 C 44.621094 41.582031 45.054688 41.257812 45.5 40.960938 C 45.949219 40.660156 46.410156 40.382812 46.886719 40.128906 C 47.363281 39.875 47.847656 39.644531 48.347656 39.4375 C 48.84375 39.230469 49.351562 39.050781 49.867188 38.894531 C 50.382812 38.734375 50.90625 38.605469 51.433594 38.5 C 51.960938 38.394531 52.496094 38.3125 53.03125 38.261719 C 53.566406 38.207031 54.105469 38.179688 54.644531 38.179688 L 320.1875 38.179688 C 320.726562 38.179688 321.265625 38.207031 321.800781 38.261719 C 322.339844 38.3125 322.871094 38.394531 323.398438 38.5 C 323.929688 38.605469 324.449219 38.734375 324.964844 38.894531 C 325.480469 39.050781 325.988281 39.230469 326.488281 39.4375 C 326.984375 39.644531 327.472656 39.875 327.945312 40.128906 C 328.421875 40.382812 328.882812 40.660156 329.332031 40.960938 C 329.78125 41.257812 330.210938 41.582031 330.628906 41.921875 C 331.046875 42.265625 331.445312 42.625 331.824219 43.007812 C 332.207031 43.386719 332.570312 43.789062 332.910156 44.203125 C 333.253906 44.621094 333.574219 45.054688 333.875 45.5 C 334.171875 45.949219 334.449219 46.410156 334.703125 46.886719 C 334.957031 47.363281 335.1875 47.847656 335.394531 48.347656 C 335.601562 48.84375 335.785156 49.351562 335.941406 49.867188 C 336.097656 50.382812 336.230469 50.90625 336.335938 51.433594 C 336.441406 51.960938 336.519531 52.496094 336.574219 53.03125 C 336.625 53.566406 336.652344 54.105469 336.652344 54.644531 Z M 336.652344 54.644531 " fill-opacity="1" fill-rule="nonzero"/></g></svg>