<svg xmlns="http://www.w3.org/2000/svg" xmlns:xlink="http://www.w3.org/1999/xlink" width="500" zoomAndPan="magnify" viewBox="0 0 375 374.999991" height="500" preserveAspectRatio="xMidYMid meet" version="1.0"><defs><clipPath id="de091f285e"><path d="M 69.039062 61.484375 L 140.753906 61.484375 L 140.753906 133.199219 L 69.039062 133.199219 Z M 69.039062 61.484375 " clip-rule="nonzero"/></clipPath><clipPath id="71557bbf8c"><path d="M 104.894531 61.484375 C 85.09375 61.484375 69.039062 77.539062 69.039062 97.339844 C 69.039062 117.144531 85.09375 133.199219 104.894531 133.199219 C 124.699219 133.199219 140.753906 117.144531 140.753906 97.339844 C 140.753906 77.539062 124.699219 61.484375 104.894531 61.484375 Z M 104.894531 61.484375 " clip-rule="nonzero"/></clipPath><clipPath id="6aee145c93"><path d="M 20.019531 186 L 353.019531 186 L 353.019531 352.679688 L 20.019531 352.679688 Z M 20.019531 186 " clip-rule="nonzero"/></clipPath><clipPath id="9ddf1b179a"><path d="M 10.144531 242 L 364.894531 242 L 364.894531 348.007812 L 10.144531 348.007812 Z M 10.144531 242 " clip-rule="nonzero"/></clipPath><clipPath id="04bf301747"><path d="M 2.394531 2.394531 L 372.894531 2.394531 L 372.894531 372.894531 L 2.394531 372.894531 Z M 2.394531 2.394531 " clip-rule="nonzero"/></clipPath><clipPath id="8e0013301c"><path d="M 50.394531 2.394531 L 324.601562 2.394531 C 351.113281 2.394531 372.601562 23.886719 372.601562 50.394531 L 372.601562 324.601562 C 372.601562 351.113281 351.113281 372.601562 324.601562 372.601562 L 50.394531 372.601562 C 23.886719 372.601562 2.394531 351.113281 2.394531 324.601562 L 2.394531 50.394531 C 2.394531 23.886719 23.886719 2.394531 50.394531 2.394531 Z M 50.394531 2.394531 " clip-rule="nonzero"/></clipPath></defs><g clip-path="url(#de091f285e)"><g clip-path="url(#71557bbf8c)"><path fill="#000000" d="M 69.039062 61.484375 L 140.753906 61.484375 L 140.753906 133.199219 L 69.039062 133.199219 Z M 69.039062 61.484375 " fill-opacity="1" fill-rule="nonzero"/></g></g><g clip-path="url(#6aee145c93)"><path fill="#000000" d="M -87.746094 375.917969 C -41.789062 351.589844 16.457031 347.347656 64.273438 317.316406 C 130.25 275.886719 174.21875 206.519531 254.847656 189.875 C 338.113281 172.691406 394.058594 218.769531 460.839844 258.882812 C 497.824219 281.097656 543 280.59375 578.527344 304.488281 C 618.953125 331.6875 627.5 384.800781 640.492188 428.085938 " fill-opacity="1" fill-rule="evenodd"/></g><g clip-path="url(#9ddf1b179a)"><path fill="#000000" d="M 389.992188 356.605469 C 359.835938 356.652344 341.75 320.261719 316.835938 308.414062 C 286.730469 294.089844 258.53125 319.609375 228.277344 312.308594 C 176.148438 299.714844 147.550781 232.5 87.351562 243.832031 C 61.828125 248.632812 50.546875 269.066406 31.265625 283.316406 C 15.015625 295.328125 -5.070312 296.464844 -22.28125 306.132812 C -46.445312 319.714844 -61.453125 349.296875 -71.617188 373.824219 C -79.589844 393.074219 -96.996094 437.5625 -75.910156 454.53125 C -62.78125 465.109375 -40.175781 462.054688 -24.691406 462.144531 C 21.058594 462.390625 66.816406 460.917969 112.542969 459.582031 " fill-opacity="1" fill-rule="evenodd"/></g><g clip-path="url(#04bf301747)"><g clip-path="url(#8e0013301c)"><path stroke-linecap="butt" transform="matrix(0.75, 0, 0, 0.75, 2.395838, 2.395833)" fill="none" stroke-linejoin="miter" d="M 63.998267 -0.00173575 L 429.607689 -0.00173575 C 464.956652 -0.00173575 493.607697 28.654518 493.607697 63.998273 L 493.607697 429.607695 C 493.607697 464.956658 464.956652 493.607703 429.607689 493.607703 L 63.998267 493.607703 C 28.654512 493.607703 -0.00174175 464.956658 -0.00174175 429.607695 L -0.00174175 63.998273 C -0.00174175 28.654518 28.654512 -0.00173575 63.998267 -0.00173575 Z M 63.998267 -0.00173575 " stroke="#000000" stroke-width="90" stroke-opacity="1" stroke-miterlimit="4"/></g></g></svg>