<svg xmlns="http://www.w3.org/2000/svg" xmlns:xlink="http://www.w3.org/1999/xlink" width="500" zoomAndPan="magnify" viewBox="0 0 375 374.999991" height="500" preserveAspectRatio="xMidYMid meet" version="1.0"><defs><clipPath id="94254eda8e"><path d="M 6.472656 6.472656 L 368.523438 6.472656 L 368.523438 368.523438 L 6.472656 368.523438 Z M 6.472656 6.472656 " clip-rule="nonzero"/></clipPath><clipPath id="0770950a16"><path d="M 187.496094 6.472656 C 87.519531 6.472656 6.472656 87.519531 6.472656 187.496094 C 6.472656 287.476562 87.519531 368.523438 187.496094 368.523438 C 287.476562 368.523438 368.523438 287.476562 368.523438 187.496094 C 368.523438 87.519531 287.476562 6.472656 187.496094 6.472656 Z M 187.496094 6.472656 " clip-rule="nonzero"/></clipPath><clipPath id="88a1d19bca"><path d="M 101 57.535156 L 274 57.535156 L 274 317.785156 L 101 317.785156 Z M 101 57.535156 " clip-rule="nonzero"/></clipPath></defs><g clip-path="url(#94254eda8e)"><g clip-path="url(#0770950a16)"><path stroke-linecap="butt" transform="matrix(0.75, 0, 0, 0.75, 6.472159, 6.472148)" fill="none" stroke-linejoin="miter" d="M 241.365262 0.0006777 C 108.06317 0.0006777 0.00066306 108.063185 0.00066306 241.365277 C 0.00066306 374.672577 108.06317 482.735084 241.365262 482.735084 C 374.672563 482.735084 482.73507 374.672577 482.73507 241.365277 C 482.73507 108.063185 374.672563 0.0006777 241.365262 0.0006777 Z M 241.365262 0.0006777 " stroke="#000000" stroke-width="82" stroke-opacity="1" stroke-miterlimit="4"/></g></g><g clip-path="url(#88a1d19bca)"><path fill="#000000" d="M 151.617188 209.109375 L 151.617188 208.058594 C 151.617188 189.023438 161.890625 176.273438 180.875 165.441406 C 204.574219 151.46875 210.667969 143.957031 210.667969 128.933594 C 210.667969 114.789062 199.339844 104.832031 183.671875 104.832031 C 169.738281 104.832031 160.324219 111.292969 154.933594 124.042969 C 149.878906 135.398438 139.945312 141.164062 127.746094 141.164062 C 111.371094 141.164062 100.921875 131.035156 101.09375 115.3125 C 101.09375 107.800781 102.839844 100.984375 106.5 94.351562 C 118.164062 72.34375 147.265625 57.316406 186.800781 57.316406 C 239.585938 57.316406 274.25 84.917969 274.25 127.359375 C 274.25 153.039062 262.242188 170.855469 236.628906 185.699219 C 213.921875 198.828125 208.71875 205.160156 205.265625 216.574219 C 205.085938 217.152344 204.914062 217.746094 204.75 218.355469 C 200.742188 230.585938 192.558594 237.046875 179.148438 237.046875 C 162.410156 237.058594 151.617188 225.707031 151.617188 209.109375 Z M 147.085938 285.96875 C 147.085938 268.503906 161.71875 254.703125 180.007812 254.703125 C 198.121094 254.703125 212.925781 268.503906 212.925781 285.96875 C 212.925781 303.609375 198.121094 317.410156 180.007812 317.410156 C 161.71875 317.410156 147.085938 303.609375 147.085938 285.96875 Z M 147.085938 285.96875 " fill-opacity="1" fill-rule="nonzero"/></g></svg>