<svg xmlns="http://www.w3.org/2000/svg" xmlns:xlink="http://www.w3.org/1999/xlink" width="500" zoomAndPan="magnify" viewBox="0 0 375 374.999991" height="500" preserveAspectRatio="xMidYMid meet" version="1.0"><defs><clipPath id="a8e891961c"><path d="M 8.964844 8.964844 L 365.964844 8.964844 L 365.964844 365.964844 L 8.964844 365.964844 Z M 8.964844 8.964844 " clip-rule="nonzero"/></clipPath></defs><g clip-path="url(#a8e891961c)"><path fill="#000000" d="M 365.960938 187.445312 C 365.960938 286.039062 286.035156 365.964844 187.445312 365.964844 C 88.847656 365.964844 8.921875 286.039062 8.921875 187.445312 C 8.921875 88.851562 88.847656 8.925781 187.445312 8.925781 C 286.035156 8.925781 365.960938 88.851562 365.960938 187.445312 " fill-opacity="1" fill-rule="nonzero"/></g><path fill="#000000" d="M 364.941406 206.59375 C 324.753906 166.40625 284.566406 126.21875 244.378906 86.03125 L 158.351562 86.03125 C 158.351562 86.03125 316.761719 116.289062 158.945312 236.925781 C 158.78125 237.050781 166.453125 256.628906 166.25 256.621094 L 182.332031 273.886719 L 163.9375 279.964844 L 158.351562 314.453125 C 175.101562 331.207031 191.859375 347.957031 208.613281 364.710938 C 290.953125 354.984375 356.125 289.214844 364.941406 206.59375 " fill-opacity="1" fill-rule="nonzero"/><path fill="#ffffff" d="M 181.421875 269.972656 C 173.59375 269.972656 166.878906 272.652344 161.472656 277.933594 C 156.046875 283.234375 153.296875 289.851562 153.296875 297.601562 C 153.296875 306.304688 156.171875 313.210938 161.84375 318.128906 C 167.398438 322.953125 173.984375 325.398438 181.421875 325.398438 C 188.652344 325.398438 195.105469 322.917969 200.613281 318.027344 C 206.214844 313.050781 209.054688 306.179688 209.054688 297.601562 C 209.054688 289.871094 206.367188 283.261719 201.070312 277.960938 C 195.769531 272.660156 189.15625 269.972656 181.421875 269.972656 " fill-opacity="1" fill-rule="nonzero"/><path fill="#ffffff" d="M 258.917969 102.203125 C 251.953125 91.609375 241.96875 83.132812 229.246094 76.996094 C 216.597656 70.90625 201.851562 67.8125 185.417969 67.8125 C 167.71875 67.8125 151.972656 71.511719 138.632812 78.808594 C 125.28125 86.117188 114.964844 95.488281 107.972656 106.664062 C 100.949219 117.886719 97.390625 129.167969 97.390625 140.199219 C 97.390625 146.046875 99.820312 151.5 104.601562 156.40625 C 109.402344 161.335938 115.378906 163.839844 122.359375 163.839844 C 134.246094 163.839844 142.382812 156.832031 146.515625 143.09375 C 150.355469 131.5625 155.078125 122.757812 160.535156 116.933594 C 165.71875 111.402344 174.089844 108.597656 185.417969 108.597656 C 195.054688 108.597656 203.003906 111.425781 209.03125 116.992188 C 215.078125 122.589844 218.023438 129.25 218.023438 137.375 C 218.023438 141.414062 217.050781 145.199219 215.136719 148.640625 C 213.117188 152.273438 210.589844 155.609375 207.625 158.578125 C 204.53125 161.671875 199.402344 166.359375 192.367188 172.511719 C 184.222656 179.648438 177.65625 185.90625 172.855469 191.101562 C 167.882812 196.476562 163.84375 202.800781 160.839844 209.894531 C 157.820312 217.035156 156.292969 225.550781 156.292969 235.210938 C 156.292969 243.410156 158.574219 249.757812 163.074219 254.0625 C 167.535156 258.339844 173.09375 260.507812 179.59375 260.507812 C 192.007812 260.507812 199.816406 253.738281 202.175781 240.929688 C 203.371094 235.601562 204.28125 231.835938 204.871094 229.738281 C 205.429688 227.765625 206.226562 225.761719 207.246094 223.773438 C 208.242188 221.832031 209.816406 219.617188 211.929688 217.1875 C 214.121094 214.683594 217.097656 211.707031 220.753906 208.375 C 234.34375 196.222656 243.914062 187.433594 249.214844 182.242188 C 254.667969 176.90625 259.429688 170.496094 263.375 163.179688 C 267.40625 155.699219 269.453125 146.90625 269.453125 137.042969 C 269.453125 124.558594 265.910156 112.835938 258.917969 102.203125 " fill-opacity="1" fill-rule="nonzero"/></svg>