<svg xmlns="http://www.w3.org/2000/svg" xmlns:xlink="http://www.w3.org/1999/xlink" width="500" zoomAndPan="magnify" viewBox="0 0 375 374.999991" height="500" preserveAspectRatio="xMidYMid meet" version="1.0"><defs><clipPath id="cce9cbea10"><path d="M 5.832031 5.832031 L 368.832031 5.832031 L 368.832031 368.832031 L 5.832031 368.832031 Z M 5.832031 5.832031 " clip-rule="nonzero"/></clipPath></defs><path fill="#ffffff" d="M 187.496094 352.992188 C 278.886719 352.992188 352.96875 278.910156 352.96875 187.523438 C 352.96875 96.136719 278.886719 22.054688 187.496094 22.054688 C 96.109375 22.054688 22.027344 96.136719 22.027344 187.523438 C 22.027344 278.910156 96.109375 352.992188 187.496094 352.992188 Z M 187.496094 352.992188 " fill-opacity="1" fill-rule="nonzero"/><g clip-path="url(#cce9cbea10)"><path fill="#000000" d="M 38.246094 187.523438 C 38.246094 105.09375 105.070312 38.273438 187.496094 38.273438 C 269.925781 38.273438 336.746094 105.09375 336.746094 187.523438 C 336.746094 269.953125 269.925781 336.773438 187.496094 336.773438 C 105.070312 336.773438 38.246094 269.953125 38.246094 187.523438 Z M 187.496094 5.832031 C 87.152344 5.832031 5.808594 87.179688 5.808594 187.523438 C 5.808594 287.867188 87.152344 369.214844 187.496094 369.214844 C 287.84375 369.214844 369.1875 287.867188 369.1875 187.523438 C 369.1875 87.179688 287.84375 5.832031 187.496094 5.832031 Z M 105.066406 150.558594 C 169.636719 138.230469 219.066406 144.878906 280.523438 177.585938 C 290.011719 182.636719 301.800781 179.035156 306.851562 169.546875 C 311.902344 160.058594 308.300781 148.269531 298.8125 143.21875 C 229.441406 106.304688 170.976562 98.34375 97.765625 112.324219 C 87.207031 114.339844 80.28125 124.53125 82.296875 135.089844 C 84.316406 145.652344 94.507812 152.574219 105.066406 150.558594 Z M 206.992188 280.375 C 178.859375 267.527344 159.832031 263.90625 130.570312 267.507812 C 119.902344 268.820312 110.1875 261.234375 108.875 250.566406 C 107.5625 239.898438 115.144531 230.183594 125.816406 228.871094 C 163.152344 224.273438 189.40625 229.546875 223.164062 244.964844 C 232.941406 249.429688 237.25 260.976562 232.78125 270.757812 C 228.316406 280.53125 216.769531 284.839844 206.992188 280.375 Z M 119.214844 207.28125 C 164.871094 198.207031 196.359375 206.558594 249.054688 232.007812 C 258.734375 236.683594 270.371094 232.628906 275.046875 222.949219 C 279.71875 213.269531 275.664062 201.632812 265.984375 196.957031 C 209.808594 169.820312 169.167969 157.660156 111.625 169.097656 C 101.082031 171.195312 94.234375 181.441406 96.328125 191.984375 C 98.425781 202.527344 108.671875 209.375 119.214844 207.28125 Z M 119.214844 207.28125 " fill-opacity="1" fill-rule="evenodd"/></g></svg>